<?xml version="1.0" encoding="UTF-8" standalone="no"?>
<svg
   xmlns:dc="http://purl.org/dc/elements/1.1/"
   xmlns:cc="http://creativecommons.org/ns#"
   xmlns:rdf="http://www.w3.org/1999/02/22-rdf-syntax-ns#"
   xmlns:svg="http://www.w3.org/2000/svg"
   xmlns="http://www.w3.org/2000/svg"
   xmlns:sodipodi="http://sodipodi.sourceforge.net/DTD/sodipodi-0.dtd"
   xmlns:inkscape="http://www.inkscape.org/namespaces/inkscape"
   width="265"
   height="24"
   viewBox="0 0 265 24"
   version="1.1"
   id="svg254"
   sodipodi:docname="customLogo.svg"
   inkscape:version="1.0.2-2 (e86c870879, 2021-01-15)">
  <metadata
     id="metadata260">
    <rdf:RDF>
      <cc:Work
         rdf:about="">
        <dc:format>image/svg+xml</dc:format>
        <dc:type
           rdf:resource="http://purl.org/dc/dcmitype/StillImage" />
      </cc:Work>
    </rdf:RDF>
  </metadata>
  <defs
     id="defs258">
    <clipPath
       id="clip1">
      <path
         d="m 158.61328,269.64453 h 75.08984 v 34.03125 h -75.08984 z m 0,0"
         id="path298" />
    </clipPath>
    <clipPath
       id="clip2">
      <rect
         x="0"
         y="0"
         width="400"
         height="400"
         id="rect309" />
    </clipPath>
    <mask
       id="mask0">
      <g
         filter="url(#alpha)"
         id="g306">
        <rect
           x="0"
           y="0"
           width="400"
           height="400"
           style="fill:#000000;fill-opacity:0.231373;stroke:none"
           id="rect304" />
      </g>
    </mask>
    <filter
       id="alpha"
       filterUnits="objectBoundingBox"
       x="0"
       y="0"
       width="1"
       height="1">
      <feColorMatrix
         type="matrix"
         in="SourceGraphic"
         values="0 0 0 0 1 0 0 0 0 1 0 0 0 0 1 0 0 0 1 0"
         id="feColorMatrix301" />
    </filter>
    <clipPath
       id="clipPath556">
      <rect
         x="0"
         y="0"
         width="400"
         height="400"
         id="rect554" />
    </clipPath>
  </defs>
  <sodipodi:namedview
     pagecolor="#ffffff"
     bordercolor="#666666"
     borderopacity="1"
     objecttolerance="10"
     gridtolerance="10"
     guidetolerance="10"
     inkscape:pageopacity="0"
     inkscape:pageshadow="2"
     inkscape:window-width="2880"
     inkscape:window-height="1526"
     id="namedview256"
     showgrid="false"
     inkscape:zoom="5.3773585"
     inkscape:cx="102.09474"
     inkscape:cy="10.944541"
     inkscape:window-x="-11"
     inkscape:window-y="-11"
     inkscape:window-maximized="1"
     inkscape:current-layer="svg254" />
  <g
     fill="none"
     fill-rule="evenodd"
     id="g252">
    <g
       id="g246">
      <path
         fill="#FFF"
         d="M2.431 8.257c.733.734 1.582 1.12 2.547 1.12.964 0 1.813-.348 2.546-1.12.733-.733 1.08-1.736 1.08-3.01 0-1.273-.385-2.276-1.118-3.01-.733-.732-1.582-1.08-2.547-1.08-.965 0-1.814.348-2.547 1.08-.733.734-1.119 1.737-1.119 3.01.077 1.274.425 2.316 1.158 3.01m7.563-3.01c0 1.583-.463 2.856-1.428 3.82-.965.965-2.122 1.467-3.55 1.467-1.427 0-2.624-.502-3.588-1.505C.463 8.026 0 6.753 0 5.21c0-1.543.502-2.817 1.466-3.781C2.431.463 3.627 0 5.016 0c1.35 0 2.547.463 3.511 1.428.965.964 1.467 2.238 1.467 3.82"
         transform="translate(1 1) translate(33.803 4.985)"
         id="path136" />
      <path
         stroke="#FFF"
         stroke-width=".75"
         d="M2.431 8.257c.733.734 1.582 1.12 2.547 1.12.964 0 1.813-.348 2.546-1.12.733-.733 1.08-1.736 1.08-3.01 0-1.273-.385-2.276-1.118-3.01-.733-.732-1.582-1.08-2.547-1.08-.965 0-1.814.348-2.547 1.08-.733.734-1.119 1.737-1.119 3.01.077 1.274.425 2.316 1.158 3.01zm7.563-3.01c0 1.583-.463 2.856-1.428 3.82-.965.965-2.122 1.467-3.55 1.467-1.427 0-2.624-.502-3.588-1.505C.463 8.026 0 6.753 0 5.21c0-1.543.502-2.817 1.466-3.781C2.431.463 3.627 0 5.016 0c1.35 0 2.547.463 3.511 1.428.965.964 1.467 2.238 1.467 3.82z"
         transform="translate(1 1) translate(33.803 4.985)"
         id="path138" />
      <path
         fill="#FFF"
         d="M13.35 6.945c0 .85.232 1.467.657 1.93.424.463.964.694 1.582.694.617 0 1.119-.231 1.543-.733.425-.501.618-1.119.618-1.929s-.193-1.428-.618-1.89c-.424-.464-.926-.734-1.543-.734-.618 0-1.158.231-1.582.695-.425.463-.656 1.119-.656 1.967m.964 6.715h-2.893c-.116 0-.193-.04-.193-.155v-.617c0-.116.077-.155.193-.155h.81V4.322h-.772c-.116 0-.193-.039-.193-.155V3.55c0-.116.077-.154.193-.154h1.698c.116 0 .193.038.193.154v1.119c.193-.386.463-.733.887-1.003.425-.27.926-.425 1.505-.425.965 0 1.737.347 2.354 1.003.617.656.887 1.544.887 2.624s-.308 1.968-.887 2.663c-.579.694-1.35 1.003-2.354 1.003-.579 0-1.08-.154-1.505-.424-.386-.27-.694-.618-.849-1.004h-.038c.038.31.038.54.038.656v2.933h.926c.116 0 .193.038.193.154v.618c0 .154-.077.193-.193.193"
         transform="translate(1 1) translate(33.803 4.985)"
         id="path140" />
      <path
         stroke="#FFF"
         stroke-width=".75"
         d="M13.35 6.945c0 .85.232 1.467.657 1.93.424.463.964.694 1.582.694.617 0 1.119-.231 1.543-.733.425-.501.618-1.119.618-1.929s-.193-1.428-.618-1.89c-.424-.464-.926-.734-1.543-.734-.618 0-1.158.231-1.582.695-.425.463-.656 1.119-.656 1.967zm.965 6.715h-2.893c-.116 0-.193-.04-.193-.155v-.617c0-.116.077-.155.193-.155h.81V4.322h-.772c-.116 0-.193-.039-.193-.155V3.55c0-.116.077-.154.193-.154h1.698c.116 0 .193.038.193.154v1.119c.193-.386.463-.733.887-1.003.425-.27.926-.425 1.505-.425.965 0 1.737.347 2.354 1.003.617.656.887 1.544.887 2.624s-.308 1.968-.887 2.663c-.579.694-1.35 1.003-2.354 1.003-.579 0-1.08-.154-1.505-.424-.386-.27-.694-.618-.849-1.004h-.038c.038.31.038.54.038.656v2.933h.926c.116 0 .193.038.193.154v.618c0 .154-.077.193-.193.193z"
         transform="translate(1 1) translate(33.803 4.985)"
         id="path142" />
      <path
         fill="#FFF"
         d="M24.811 4.746c-.347-.347-.81-.54-1.39-.54-.578 0-1.08.154-1.465.501-.425.31-.656.81-.734 1.467h4.168c-.039-.618-.232-1.08-.579-1.428m1.582 2.315h-5.17c.038.81.308 1.39.771 1.852.463.464 1.003.656 1.582.656.579 0 1.08-.115 1.505-.386.424-.231.694-.501.849-.733.077-.077.154-.115.27-.038l.386.386c.039.038.077.115.077.154 0 .039-.038.077-.077.154s-.116.155-.27.309c-.155.154-.309.309-.579.502-.27.192-.579.347-.965.463-.386.115-.81.193-1.234.193-1.004 0-1.853-.348-2.509-1.004-.656-.656-1.003-1.543-1.003-2.662s.347-2.007 1.003-2.662c.656-.656 1.505-.965 2.47-.965.965 0 1.736.309 2.276.926.54.617.85 1.466.85 2.547v.115c-.04.116-.116.193-.232.193"
         transform="translate(1 1) translate(33.803 4.985)"
         id="path144" />
      <path
         stroke="#FFF"
         stroke-width=".75"
         d="M24.811 4.746c-.347-.347-.81-.54-1.39-.54-.578 0-1.08.154-1.465.501-.425.31-.656.81-.734 1.467h4.168c-.039-.618-.232-1.08-.579-1.428zm1.582 2.315h-5.17c.038.81.308 1.39.771 1.852.463.464 1.003.656 1.582.656.579 0 1.08-.115 1.505-.386.424-.231.694-.501.849-.733.077-.077.154-.115.27-.038l.386.386c.039.038.077.115.077.154 0 .039-.038.077-.077.154s-.116.155-.27.309c-.155.154-.309.309-.579.502-.27.192-.579.347-.965.463-.386.115-.81.193-1.234.193-1.004 0-1.853-.348-2.509-1.004-.656-.656-1.003-1.543-1.003-2.662s.347-2.007 1.003-2.662c.656-.656 1.505-.965 2.47-.965.965 0 1.736.309 2.276.926.54.617.85 1.466.85 2.547v.115c-.04.116-.116.193-.232.193z"
         transform="translate(1 1) translate(33.803 4.985)"
         id="path146" />
      <path
         fill="#FFF"
         d="M35.345 10.457h-1.35c-.425 0-.618-.193-.618-.618V6.058c0-.54-.154-1.003-.386-1.312-.27-.309-.656-.463-1.157-.463-.733 0-1.312.309-1.737.926-.038.039-.116.155-.193.309v3.936h.772c.116 0 .193.038.193.154v.617c0 .116-.077.155-.193.155h-2.74c-.115 0-.192-.039-.192-.155v-.617c0-.116.077-.154.192-.154h.772V4.322h-.772c-.115 0-.192-.039-.192-.155V3.55c0-.116.077-.154.192-.154h1.698c.116 0 .193.038.193.154l-.038.965h.038c.502-.85 1.274-1.235 2.315-1.235.772 0 1.35.231 1.814.694.463.463.656 1.042.656 1.814v3.704h.81c.116 0 .193.039.193.155v.617c-.077.116-.116.193-.27.193"
         transform="translate(1 1) translate(33.803 4.985)"
         id="path148" />
      <path
         stroke="#FFF"
         stroke-width=".75"
         d="M35.345 10.457h-1.35c-.425 0-.618-.193-.618-.618V6.058c0-.54-.154-1.003-.386-1.312-.27-.309-.656-.463-1.157-.463-.733 0-1.312.309-1.737.926-.038.039-.116.155-.193.309v3.936h.772c.116 0 .193.038.193.154v.617c0 .116-.077.155-.193.155h-2.74c-.115 0-.192-.039-.192-.155v-.617c0-.116.077-.154.192-.154h.772V4.322h-.772c-.115 0-.192-.039-.192-.155V3.55c0-.116.077-.154.192-.154h1.698c.116 0 .193.038.193.154l-.038.965h.038c.502-.85 1.274-1.235 2.315-1.235.772 0 1.35.231 1.814.694.463.463.656 1.042.656 1.814v3.704h.81c.116 0 .193.039.193.155v.617c-.077.116-.116.193-.27.193z"
         transform="translate(1 1) translate(33.803 4.985)"
         id="path150" />
      <path
         fill="#FFF"
         d="M51.513 10.457H48.04c-.116 0-.193-.039-.193-.155V9.57c0-.115.039-.154.193-.154h1.119V5.904h-5.364v3.511h1.12c.115 0 .192.039.192.154v.733c0 .116-.077.155-.193.155H41.48c-.116 0-.193-.039-.193-.155V9.57c0-.115.077-.154.193-.154h1.08V1.196h-1.08c-.116 0-.193-.038-.193-.154V.309c0-.116.077-.155.193-.155h3.434c.116 0 .193.039.193.155v.733c0 .116-.077.154-.193.154h-1.119v3.589h5.364V1.196h-1.12c-.115 0-.192-.038-.192-.154V.309c0-.116.039-.155.193-.155h3.473c.115 0 .192.039.192.155v.733c0 .116-.038.154-.192.154h-1.12v8.18h1.12c.115 0 .192.039.192.155v.733c0 .116-.077.193-.192.193"
         transform="translate(1 1) translate(33.803 4.985)"
         id="path152" />
      <path
         stroke="#FFF"
         stroke-width=".75"
         d="M51.513 10.457H48.04c-.116 0-.193-.039-.193-.155V9.57c0-.115.039-.154.193-.154h1.119V5.904h-5.364v3.511h1.12c.115 0 .192.039.192.154v.733c0 .116-.077.155-.193.155H41.48c-.116 0-.193-.039-.193-.155V9.57c0-.115.077-.154.193-.154h1.08V1.196h-1.08c-.116 0-.193-.038-.193-.154V.309c0-.116.077-.155.193-.155h3.434c.116 0 .193.039.193.155v.733c0 .116-.077.154-.193.154h-1.119v3.589h5.364V1.196h-1.12c-.115 0-.192-.038-.192-.154V.309c0-.116.039-.155.193-.155h3.473c.115 0 .192.039.192.155v.733c0 .116-.038.154-.192.154h-1.12v8.18h1.12c.115 0 .192.039.192.155v.733c0 .116-.077.193-.192.193z"
         transform="translate(1 1) translate(33.803 4.985)"
         id="path154" />
      <path
         fill="#FFF"
         d="M57.34 4.746c-.348-.347-.811-.54-1.39-.54-.579 0-1.08.154-1.466.501-.425.31-.656.81-.733 1.467h4.167c-.039-.618-.232-1.08-.579-1.428m1.544 2.315h-5.171c.039.81.309 1.39.772 1.852.463.425 1.003.656 1.582.656.578 0 1.08-.115 1.505-.386.424-.231.694-.501.849-.733.077-.077.154-.115.27-.038l.385.386c.039.038.078.115.078.154 0 .039-.039.077-.078.154-.038.077-.115.155-.27.309-.154.154-.308.309-.578.502-.27.192-.58.347-.965.463-.386.115-.81.193-1.235.193-1.003 0-1.852-.348-2.508-1.004-.656-.656-1.003-1.543-1.003-2.662s.347-2.007 1.003-2.662c.656-.656 1.505-.965 2.47-.965.964 0 1.736.309 2.276.926.54.617.85 1.466.85 2.547v.115c-.04.116-.078.193-.232.193"
         transform="translate(1 1) translate(33.803 4.985)"
         id="path156" />
      <path
         stroke="#FFF"
         stroke-width=".75"
         d="M57.34 4.746c-.348-.347-.811-.54-1.39-.54-.579 0-1.08.154-1.466.501-.425.31-.656.81-.733 1.467h4.167c-.039-.618-.232-1.08-.579-1.428zm1.543 2.315h-5.171c.039.81.309 1.39.772 1.852.463.425 1.003.656 1.582.656.578 0 1.08-.115 1.505-.386.424-.231.694-.501.849-.733.077-.077.154-.115.27-.038l.385.386c.039.038.078.115.078.154 0 .039-.039.077-.078.154-.038.077-.115.155-.27.309-.154.154-.308.309-.578.502-.27.192-.58.347-.965.463-.386.115-.81.193-1.235.193-1.003 0-1.852-.348-2.508-1.004-.656-.656-1.003-1.543-1.003-2.662s.347-2.007 1.003-2.662c.656-.656 1.505-.965 2.47-.965.964 0 1.736.309 2.276.926.54.617.85 1.466.85 2.547v.115c-.04.116-.078.193-.232.193z"
         transform="translate(1 1) translate(33.803 4.985)"
         id="path158" />
      <path
         fill="#FFF"
         d="M65.25 7.138h-1.12c-.54 0-1.003.04-1.389.078-.347.038-.694.193-.926.385-.27.193-.386.464-.386.81 0 .348.155.618.425.811.27.193.617.309 1.08.309.926 0 1.698-.425 2.354-1.235l-.039-1.158zm2.006 3.319H66.02c-.424 0-.617-.193-.617-.618v-.733h-.039c-.694.965-1.62 1.467-2.817 1.467-.694 0-1.234-.193-1.698-.54-.424-.348-.656-.85-.656-1.467 0-.772.348-1.35 1.042-1.736.695-.386 1.621-.54 2.817-.54h1.196v-.155c0-1.196-.617-1.813-1.852-1.813-.578 0-1.003.038-1.273.154-.27.116-.425.193-.54.27-.116.077-.193.116-.232.154-.154.116-.231.116-.309.04l-.385-.503c-.078-.077-.04-.154.038-.231.154-.232.502-.425 1.003-.617.502-.193 1.12-.31 1.814-.31 2.006 0 3.01.966 3.01 2.856v3.319h.81c.116 0 .193.038.193.154v.617c-.077.155-.154.232-.27.232z"
         transform="translate(1 1) translate(33.803 4.985)"
         id="path160" />
      <path
         stroke="#FFF"
         stroke-width=".75"
         d="M65.25 7.138h-1.12c-.54 0-1.003.04-1.389.078-.347.038-.694.193-.926.385-.27.193-.386.464-.386.81 0 .348.155.618.425.811.27.193.617.309 1.08.309.926 0 1.698-.425 2.354-1.235l-.039-1.158zm2.006 3.319H66.02c-.424 0-.617-.193-.617-.618v-.733h-.039c-.694.965-1.62 1.467-2.817 1.467-.694 0-1.234-.193-1.698-.54-.424-.348-.656-.85-.656-1.467 0-.772.348-1.35 1.042-1.736.695-.386 1.621-.54 2.817-.54h1.196v-.155c0-1.196-.617-1.813-1.852-1.813-.578 0-1.003.038-1.273.154-.27.116-.425.193-.54.27-.116.077-.193.116-.232.154-.154.116-.231.116-.309.04l-.385-.503c-.078-.077-.04-.154.038-.231.154-.232.502-.425 1.003-.617.502-.193 1.12-.31 1.814-.31 2.006 0 3.01.966 3.01 2.856v3.319h.81c.116 0 .193.038.193.154v.617c-.077.155-.154.232-.27.232z"
         transform="translate(1 1) translate(33.803 4.985)"
         id="path162" />
      <path
         fill="#FFF"
         d="M71.385 10.457h-2.74c-.116 0-.193-.039-.193-.155v-.617c0-.116.077-.154.193-.154h.772V1.08h-.772c-.116 0-.193-.04-.193-.155V.309c0-.116.077-.155.193-.155h1.582c.27 0 .386.116.386.348v8.952h.772c.115 0 .192.038.192.154v.617c0 .155-.077.232-.192.232"
         transform="translate(1 1) translate(33.803 4.985)"
         id="path164" />
      <path
         stroke="#FFF"
         stroke-width=".75"
         d="M71.385 10.457h-2.74c-.116 0-.193-.039-.193-.155v-.617c0-.116.077-.154.193-.154h.772V1.08h-.772c-.116 0-.193-.04-.193-.155V.309c0-.116.077-.155.193-.155h1.582c.27 0 .386.116.386.348v8.952h.772c.115 0 .192.038.192.154v.617c0 .155-.077.232-.192.232z"
         transform="translate(1 1) translate(33.803 4.985)"
         id="path166" />
      <path
         fill="#FFF"
         d="M77.404 9.724c.039.038.039.077.039.116 0 .038-.04.077-.078.154-.424.386-.964.54-1.582.54-.617 0-1.157-.193-1.582-.617-.424-.425-.617-1.004-.617-1.814V4.322h-.81c-.155 0-.193-.078-.193-.193V3.55c0-.116.077-.193.193-.193h.81V1.89c0-.155.077-.193.193-.193h.81c.116 0 .193.077.193.193v1.466h1.814c.154 0 .193.077.193.193v.579c0 .115-.078.193-.193.193H74.78v3.743c0 .462.116.848.309 1.08.193.231.501.347.849.347.347 0 .617-.077.81-.27.077-.077.193-.077.27 0l.386.502z"
         transform="translate(1 1) translate(33.803 4.985)"
         id="path168" />
      <path
         stroke="#FFF"
         stroke-width=".75"
         d="M77.404 9.724c.039.038.039.077.039.116 0 .038-.04.077-.078.154-.424.386-.964.54-1.582.54-.617 0-1.157-.193-1.582-.617-.424-.425-.617-1.004-.617-1.814V4.322h-.81c-.155 0-.193-.078-.193-.193V3.55c0-.116.077-.193.193-.193h.81V1.89c0-.155.077-.193.193-.193h.81c.116 0 .193.077.193.193v1.466h1.814c.154 0 .193.077.193.193v.579c0 .115-.078.193-.193.193H74.78v3.743c0 .462.116.848.309 1.08.193.231.501.347.849.347.347 0 .617-.077.81-.27.077-.077.193-.077.27 0l.386.502z"
         transform="translate(1 1) translate(33.803 4.985)"
         id="path170" />
      <path
         fill="#FFF"
         d="M85.893 10.457h-1.35c-.425 0-.618-.193-.618-.618V6.058c0-.54-.154-1.003-.386-1.312-.27-.309-.656-.463-1.157-.463-.386 0-.695.077-.888.193-.193.116-.347.231-.463.309-.116.077-.193.193-.27.27-.116.154-.193.309-.309.463v3.936h.772c.116 0 .193.038.193.154v.617c0 .116-.077.155-.193.155h-2.74c-.115 0-.193-.039-.193-.155v-.617c0-.116.078-.154.194-.154h.771V1.08h-.771c-.116 0-.194-.038-.194-.154V.309c0-.116.078-.155.194-.155h1.813c.116 0 .193.039.193.155V3.51c0 .31 0 .618-.039.888h.039c.463-.733 1.196-1.12 2.238-1.12.772 0 1.35.232 1.813.695.463.463.656 1.042.656 1.814v3.704h.81c.116 0 .194.039.194.155v.617c-.116.116-.193.193-.309.193"
         transform="translate(1 1) translate(33.803 4.985)"
         id="path172" />
      <path
         stroke="#FFF"
         stroke-width=".75"
         d="M85.893 10.457h-1.35c-.425 0-.618-.193-.618-.618V6.058c0-.54-.154-1.003-.386-1.312-.27-.309-.656-.463-1.157-.463-.386 0-.695.077-.888.193-.193.116-.347.231-.463.309-.116.077-.193.193-.27.27-.116.154-.193.309-.309.463v3.936h.772c.116 0 .193.038.193.154v.617c0 .116-.077.155-.193.155h-2.74c-.115 0-.193-.039-.193-.155v-.617c0-.116.078-.154.194-.154h.771V1.08h-.771c-.116 0-.194-.038-.194-.154V.309c0-.116.078-.155.194-.155h1.813c.116 0 .193.039.193.155V3.51c0 .31 0 .618-.039.888h.039c.463-.733 1.196-1.12 2.238-1.12.772 0 1.35.232 1.813.695.463.463.656 1.042.656 1.814v3.704h.81c.116 0 .194.039.194.155v.617c-.116.116-.193.193-.309.193z"
         transform="translate(1 1) translate(33.803 4.985)"
         id="path174" />
      <g
         id="g244">
        <path
           fill="#FFF"
           d="M3.627 10.302H.193c-.116 0-.193-.038-.193-.154v-.733c0-.116.077-.154.193-.154h1.08V1.042H.193C.077 1.042 0 1.003 0 .888V.154C0 .04.077 0 .193 0h3.434c.116 0 .193.039.193.154v.734c0 .115-.077.154-.193.154H2.508v8.18h1.119c.116 0 .193.039.193.154v.734c0 .115-.077.192-.193.192"
           transform="translate(1 1) translate(33.803 4.985) translate(91.924 .113)"
           id="path176" />
        <path
           stroke="#FFF"
           stroke-width=".75"
           d="M3.627 10.302H.193c-.116 0-.193-.038-.193-.154v-.733c0-.116.077-.154.193-.154h1.08V1.042H.193C.077 1.042 0 1.003 0 .888V.154C0 .04.077 0 .193 0h3.434c.116 0 .193.039.193.154v.734c0 .115-.077.154-.193.154H2.508v8.18h1.119c.116 0 .193.039.193.154v.734c0 .115-.077.192-.193.192z"
           transform="translate(1 1) translate(33.803 4.985) translate(91.924 .113)"
           id="path178" />
        <path
           fill="#FFF"
           d="M17.094 10.302h-1.35c-.232 0-.387-.038-.464-.154-.116-.077-.154-.231-.154-.463V5.904c0-.54-.116-1.004-.386-1.312-.27-.309-.656-.463-1.158-.463-.771 0-1.35.347-1.775 1.003.039.154.077.347.077.579v3.627h.81c.117 0 .194.038.194.154v.618c0 .115-.039.154-.193.154h-2.74c-.116 0-.193-.039-.193-.154v-.618c0-.116.077-.154.193-.154h.772V5.904c0-.54-.154-1.004-.386-1.312-.27-.309-.656-.463-1.158-.463-.385 0-.694.077-.887.193-.193.116-.347.231-.463.308-.116.078-.193.193-.27.27-.116.155-.193.31-.309.464v3.935h.695c.116 0 .193.039.193.155v.617c0 .116-.039.154-.193.154H5.248c-.116 0-.193-.038-.193-.154v-.617c0-.116.077-.155.193-.155h.771V4.206h-.771c-.116 0-.193-.039-.193-.154v-.618c0-.116.077-.154.193-.154h1.389c.154 0 .27.038.347.077.077.077.116.154.116.347l-.039.734H7.1c.501-.85 1.273-1.235 2.315-1.235s1.775.386 2.16 1.196c.541-.81 1.313-1.196 2.316-1.196.772 0 1.35.231 1.775.694.424.463.656 1.042.656 1.814v3.704h.81c.116 0 .193.039.193.154v.618c-.038.038-.116.115-.231.115"
           transform="translate(1 1) translate(33.803 4.985) translate(91.924 .113)"
           id="path180" />
        <path
           stroke="#FFF"
           stroke-width=".75"
           d="M17.094 10.302h-1.35c-.232 0-.387-.038-.464-.154-.116-.077-.154-.231-.154-.463V5.904c0-.54-.116-1.004-.386-1.312-.27-.309-.656-.463-1.158-.463-.771 0-1.35.347-1.775 1.003.039.154.077.347.077.579v3.627h.81c.117 0 .194.038.194.154v.618c0 .115-.039.154-.193.154h-2.74c-.116 0-.193-.039-.193-.154v-.618c0-.116.077-.154.193-.154h.772V5.904c0-.54-.154-1.004-.386-1.312-.27-.309-.656-.463-1.158-.463-.385 0-.694.077-.887.193-.193.116-.347.231-.463.308-.116.078-.193.193-.27.27-.116.155-.193.31-.309.464v3.935h.695c.116 0 .193.039.193.155v.617c0 .116-.039.154-.193.154H5.248c-.116 0-.193-.038-.193-.154v-.617c0-.116.077-.155.193-.155h.771V4.206h-.771c-.116 0-.193-.039-.193-.154v-.618c0-.116.077-.154.193-.154h1.389c.154 0 .27.038.347.077.077.077.116.154.116.347l-.039.734H7.1c.501-.85 1.273-1.235 2.315-1.235s1.775.386 2.16 1.196c.541-.81 1.313-1.196 2.316-1.196.772 0 1.35.231 1.775.694.424.463.656 1.042.656 1.814v3.704h.81c.116 0 .193.039.193.154v.618c-.038.038-.116.115-.231.115z"
           transform="translate(1 1) translate(33.803 4.985) translate(91.924 .113)"
           id="path182" />
        <path
           fill="#FFF"
           d="M23.267 6.984h-1.119c-.54 0-1.003.039-1.389.077-.347.039-.694.193-.926.386-.27.193-.386.463-.386.81 0 .348.155.618.425.81.27.194.617.31 1.08.31.926 0 1.698-.425 2.354-1.235l-.039-1.158zm2.007 3.318h-1.235c-.424 0-.617-.192-.617-.617v-.733h-.039c-.694.965-1.62 1.466-2.817 1.466-.694 0-1.234-.193-1.697-.54-.425-.347-.656-.849-.656-1.466 0-.772.347-1.35 1.042-1.736.694-.387 1.62-.54 2.816-.54h1.196V5.98c0-1.196-.617-1.814-1.852-1.814-.579 0-1.003.04-1.273.155-.27.115-.425.193-.54.27-.116.077-.193.115-.232.154-.154.116-.231.116-.309.039l-.385-.502c-.077-.077-.039-.154.038-.231.155-.232.502-.425 1.003-.618.502-.193 1.12-.309 1.814-.309 2.007 0 3.01.965 3.01 2.856v3.318h.81c.116 0 .193.039.193.155v.617c-.077.154-.154.231-.27.231z"
           transform="translate(1 1) translate(33.803 4.985) translate(91.924 .113)"
           id="path184" />
        <path
           stroke="#FFF"
           stroke-width=".75"
           d="M23.267 6.984h-1.119c-.54 0-1.003.039-1.389.077-.347.039-.694.193-.926.386-.27.193-.386.463-.386.81 0 .348.155.618.425.81.27.194.617.31 1.08.31.926 0 1.698-.425 2.354-1.235l-.039-1.158zm2.007 3.318h-1.235c-.424 0-.617-.192-.617-.617v-.733h-.039c-.694.965-1.62 1.466-2.817 1.466-.694 0-1.234-.193-1.697-.54-.425-.347-.656-.849-.656-1.466 0-.772.347-1.35 1.042-1.736.694-.387 1.62-.54 2.816-.54h1.196V5.98c0-1.196-.617-1.814-1.852-1.814-.579 0-1.003.04-1.273.155-.27.115-.425.193-.54.27-.116.077-.193.115-.232.154-.154.116-.231.116-.309.039l-.385-.502c-.077-.077-.039-.154.038-.231.155-.232.502-.425 1.003-.618.502-.193 1.12-.309 1.814-.309 2.007 0 3.01.965 3.01 2.856v3.318h.81c.116 0 .193.039.193.155v.617c-.077.154-.154.231-.27.231z"
           transform="translate(1 1) translate(33.803 4.985) translate(91.924 .113)"
           id="path186" />
        <path
           fill="#FFF"
           d="M27.55 6.753c0 .81.193 1.427.618 1.929.424.463.965.733 1.582.733.617 0 1.158-.231 1.582-.733.425-.502.617-1.12.617-1.93 0-.81-.192-1.427-.617-1.929-.424-.501-.926-.694-1.582-.694-.617 0-1.158.231-1.582.733-.386.463-.617 1.119-.617 1.89m2.122 6.908c-.463 0-.849-.039-1.08-.116-.232-.077-.425-.116-.58-.193-.154-.039-.27-.116-.385-.155-.116-.038-.193-.115-.309-.154-.424-.27-.579-.463-.463-.617l.386-.54c.038-.077.154-.077.231 0l.078.077c.038.038.115.077.154.116.038.038.116.077.231.154.078.038.193.116.31.154.115.039.23.077.385.116.309.077.656.116 1.042.116.694 0 1.235-.155 1.659-.502.425-.347.617-.849.617-1.543v-1.66c-.192.386-.463.734-.848 1.042-.386.31-.888.425-1.505.425-.965 0-1.775-.347-2.354-1.003-.579-.695-.888-1.582-.888-2.663 0-1.08.309-1.968.888-2.624.579-.656 1.389-1.003 2.354-1.003.578 0 1.08.154 1.505.424.424.27.694.618.887 1.004h.039v-1.12c0-.115.038-.154.192-.154h1.698c.116 0 .193.039.193.155v.617c0 .116-.038.154-.193.154h-.771v6.367c0 1.042-.31 1.814-.927 2.315-.694.54-1.504.81-2.546.81"
           transform="translate(1 1) translate(33.803 4.985) translate(91.924 .113)"
           id="path188" />
        <path
           stroke="#FFF"
           stroke-width=".75"
           d="M27.55 6.753c0 .81.193 1.427.618 1.929.424.463.965.733 1.582.733.617 0 1.158-.231 1.582-.733.425-.502.617-1.12.617-1.93 0-.81-.192-1.427-.617-1.929-.424-.501-.926-.694-1.582-.694-.617 0-1.158.231-1.582.733-.386.463-.617 1.119-.617 1.89zm2.123 6.907c-.463 0-.849-.039-1.08-.116-.232-.077-.425-.116-.58-.193-.154-.039-.27-.116-.385-.155-.116-.038-.193-.115-.309-.154-.424-.27-.579-.463-.463-.617l.386-.54c.038-.077.154-.077.231 0l.078.077c.038.038.115.077.154.116.038.038.116.077.231.154.078.038.193.116.31.154.115.039.23.077.385.116.309.077.656.116 1.042.116.694 0 1.235-.155 1.659-.502.425-.347.617-.849.617-1.543v-1.66c-.192.386-.463.734-.848 1.042-.386.31-.888.425-1.505.425-.965 0-1.775-.347-2.354-1.003-.579-.695-.888-1.582-.888-2.663 0-1.08.309-1.968.888-2.624.579-.656 1.389-1.003 2.354-1.003.578 0 1.08.154 1.505.424.424.27.694.618.887 1.004h.039v-1.12c0-.115.038-.154.192-.154h1.698c.116 0 .193.039.193.155v.617c0 .116-.038.154-.193.154h-.771v6.367c0 1.042-.31 1.814-.927 2.315-.694.54-1.504.81-2.546.81z"
           transform="translate(1 1) translate(33.803 4.985) translate(91.924 .113)"
           id="path190" />
        <path
           fill="#FFF"
           d="M37.274 1.08c.155.155.232.348.232.58 0 .23-.077.424-.232.54-.154.154-.347.231-.579.231-.231 0-.424-.077-.578-.232-.155-.154-.232-.347-.232-.54 0-.231.077-.424.232-.579.154-.154.347-.23.578-.23.232 0 .425.076.58.23m.81 9.223h-2.74c-.116 0-.193-.039-.193-.155v-.617c0-.116.077-.155.193-.155h.772V4.167h-.772c-.116 0-.193-.038-.193-.154v-.617c0-.116.077-.155.193-.155h1.814c.115 0 .192.039.192.155v5.942h.772c.116 0 .193.038.193.154v.618c-.039.115-.077.193-.231.193"
           transform="translate(1 1) translate(33.803 4.985) translate(91.924 .113)"
           id="path192" />
        <path
           stroke="#FFF"
           stroke-width=".75"
           d="M37.274 1.08c.155.155.232.348.232.58 0 .23-.077.424-.232.54-.154.154-.347.231-.579.231-.231 0-.424-.077-.578-.232-.155-.154-.232-.347-.232-.54 0-.231.077-.424.232-.579.154-.154.347-.23.578-.23.232 0 .425.076.58.23zm.81 9.223h-2.739c-.116 0-.193-.039-.193-.155v-.617c0-.116.077-.155.193-.155h.772V4.167h-.772c-.116 0-.193-.038-.193-.154v-.617c0-.116.077-.155.193-.155h1.814c.115 0 .192.039.192.155v5.942h.772c.116 0 .193.038.193.154v.618c-.039.115-.077.193-.231.193z"
           transform="translate(1 1) translate(33.803 4.985) translate(91.924 .113)"
           id="path194" />
        <path
           fill="#FFF"
           d="M47.037 10.302h-1.351c-.424 0-.617-.192-.617-.617V5.904c0-.54-.155-1.004-.386-1.312-.27-.309-.656-.463-1.158-.463-.733 0-1.312.309-1.736.926-.039.039-.116.154-.193.309v3.935h.772c.115 0 .193.039.193.155v.617c0 .116-.078.154-.193.154h-2.74c-.116 0-.193-.038-.193-.154v-.617c0-.116.077-.155.193-.155h.772V4.206h-.772c-.116 0-.193-.039-.193-.154v-.618c0-.116.077-.154.193-.154h1.698c.116 0 .193.038.193.154l-.039.965h.039c.501-.849 1.273-1.235 2.315-1.235.772 0 1.35.232 1.814.695.462.463.655 1.041.655 1.813v3.704h.81c.116 0 .194.04.194.155v.617c-.116.077-.155.154-.27.154"
           transform="translate(1 1) translate(33.803 4.985) translate(91.924 .113)"
           id="path196" />
        <path
           stroke="#FFF"
           stroke-width=".75"
           d="M47.037 10.302h-1.351c-.424 0-.617-.192-.617-.617V5.904c0-.54-.155-1.004-.386-1.312-.27-.309-.656-.463-1.158-.463-.733 0-1.312.309-1.736.926-.039.039-.116.154-.193.309v3.935h.772c.115 0 .193.039.193.155v.617c0 .116-.078.154-.193.154h-2.74c-.116 0-.193-.038-.193-.154v-.617c0-.116.077-.155.193-.155h.772V4.206h-.772c-.116 0-.193-.039-.193-.154v-.618c0-.116.077-.154.193-.154h1.698c.116 0 .193.038.193.154l-.039.965h.039c.501-.849 1.273-1.235 2.315-1.235.772 0 1.35.232 1.814.695.462.463.655 1.041.655 1.813v3.704h.81c.116 0 .194.04.194.155v.617c-.116.077-.155.154-.27.154z"
           transform="translate(1 1) translate(33.803 4.985) translate(91.924 .113)"
           id="path198" />
        <path
           fill="#FFF"
           d="M49.197 6.753c0 .81.193 1.427.618 1.929.424.463.965.733 1.582.733.617 0 1.157-.231 1.582-.733.424-.502.617-1.12.617-1.93 0-.81-.193-1.427-.617-1.929-.425-.501-.926-.694-1.582-.694-.617 0-1.158.231-1.582.733-.425.501-.618 1.119-.618 1.89m2.161 6.908c-.463 0-.849-.039-1.08-.116-.232-.077-.425-.116-.579-.193-.154-.039-.27-.116-.386-.155-.116-.038-.193-.115-.308-.154-.425-.27-.58-.463-.464-.617l.386-.54c.039-.077.155-.077.232 0l.077.077c.039.038.116.077.154.116.039.038.116.077.232.154.077.038.193.116.309.154.115.039.231.077.385.116.31.077.656.116 1.042.116.695 0 1.235-.155 1.66-.502.424-.347.617-.849.617-1.543v-1.66c-.193.386-.463.734-.85 1.042-.385.31-.887.425-1.504.425-.965 0-1.775-.347-2.354-1.003-.578-.695-.887-1.582-.887-2.663 0-1.08.309-1.968.887-2.624.58-.656 1.39-1.003 2.354-1.003.579 0 1.08.154 1.505.424.424.27.695.618.887 1.004h.039v-1.12c0-.115.039-.154.193-.154h1.698c.115 0 .193.039.193.155v.617c0 .116-.039.154-.193.154h-.772v6.367c0 1.042-.309 1.814-.926 2.315-.733.54-1.544.81-2.547.81"
           transform="translate(1 1) translate(33.803 4.985) translate(91.924 .113)"
           id="path200" />
        <path
           stroke="#FFF"
           stroke-width=".75"
           d="M49.197 6.753c0 .81.193 1.427.618 1.929.424.463.965.733 1.582.733.617 0 1.157-.231 1.582-.733.424-.502.617-1.12.617-1.93 0-.81-.193-1.427-.617-1.929-.425-.501-.926-.694-1.582-.694-.617 0-1.158.231-1.582.733-.425.501-.618 1.119-.618 1.89zm2.161 6.907c-.463 0-.849-.039-1.08-.116-.232-.077-.425-.116-.579-.193-.154-.039-.27-.116-.386-.155-.116-.038-.193-.115-.308-.154-.425-.27-.58-.463-.464-.617l.386-.54c.039-.077.155-.077.232 0l.077.077c.039.038.116.077.154.116.039.038.116.077.232.154.077.038.193.116.309.154.115.039.231.077.385.116.31.077.656.116 1.042.116.695 0 1.235-.155 1.66-.502.424-.347.617-.849.617-1.543v-1.66c-.193.386-.463.734-.85 1.042-.385.31-.887.425-1.504.425-.965 0-1.775-.347-2.354-1.003-.578-.695-.887-1.582-.887-2.663 0-1.08.309-1.968.887-2.624.58-.656 1.39-1.003 2.354-1.003.579 0 1.08.154 1.505.424.424.27.695.618.887 1.004h.039v-1.12c0-.115.039-.154.193-.154h1.698c.115 0 .193.039.193.155v.617c0 .116-.039.154-.193.154h-.772v6.367c0 1.042-.309 1.814-.926 2.315-.733.54-1.544.81-2.547.81z"
           transform="translate(1 1) translate(33.803 4.985) translate(91.924 .113)"
           id="path202" />
        <path
           fill="#FFF"
           d="M65.596 10.302h-3.974c-.116 0-.193-.038-.193-.154v-.733c0-.116.077-.154.193-.154h1.08V1.042h-1.08c-.116 0-.193-.039-.193-.154V.154c0-.115.077-.154.193-.154h7.37c.116 0 .193.039.193.154V2.47c0 .116-.077.194-.193.194h-.771c-.116 0-.194-.078-.194-.194V1.08h-4.09v3.55h3.396c.116 0 .193.039.193.155v.733c0 .116-.077.154-.193.154h-3.396v3.512h1.62c.117 0 .194.038.194.154v.733c.038.154-.039.231-.155.231"
           transform="translate(1 1) translate(33.803 4.985) translate(91.924 .113)"
           id="path204" />
        <path
           stroke="#FFF"
           stroke-width=".75"
           d="M65.596 10.302h-3.974c-.116 0-.193-.038-.193-.154v-.733c0-.116.077-.154.193-.154h1.08V1.042h-1.08c-.116 0-.193-.039-.193-.154V.154c0-.115.077-.154.193-.154h7.37c.116 0 .193.039.193.154V2.47c0 .116-.077.194-.193.194h-.771c-.116 0-.194-.078-.194-.194V1.08h-4.09v3.55h3.396c.116 0 .193.039.193.155v.733c0 .116-.077.154-.193.154h-3.396v3.512h1.62c.117 0 .194.038.194.154v.733c.038.154-.039.231-.155.231z"
           transform="translate(1 1) translate(33.803 4.985) translate(91.924 .113)"
           id="path206" />
        <path
           fill="#FFF"
           d="M70.535 6.753c0 .771.232 1.427.695 1.929.463.502 1.003.733 1.698.733.694 0 1.235-.231 1.698-.733.463-.502.694-1.12.694-1.93 0-.771-.231-1.427-.694-1.89-.463-.463-1.004-.733-1.66-.733-.656 0-1.196.231-1.697.733-.502.463-.734 1.08-.734 1.89m4.94 2.625c-.656.656-1.544 1.003-2.586 1.003-1.042 0-1.89-.347-2.585-1.003-.656-.656-1.003-1.544-1.003-2.663 0-1.119.347-1.968 1.003-2.624.695-.656 1.544-.965 2.547-.965 1.003 0 1.89.348 2.546 1.004.656.656 1.004 1.543 1.004 2.624.077 1.08-.232 1.968-.926 2.624"
           transform="translate(1 1) translate(33.803 4.985) translate(91.924 .113)"
           id="path208" />
        <path
           stroke="#FFF"
           stroke-width=".75"
           d="M70.535 6.753c0 .771.232 1.427.695 1.929.463.502 1.003.733 1.698.733.694 0 1.235-.231 1.698-.733.463-.502.694-1.12.694-1.93 0-.771-.231-1.427-.694-1.89-.463-.463-1.004-.733-1.66-.733-.656 0-1.196.231-1.697.733-.502.463-.734 1.08-.734 1.89zm4.94 2.624c-.656.656-1.544 1.003-2.586 1.003-1.042 0-1.89-.347-2.585-1.003-.656-.656-1.003-1.544-1.003-2.663 0-1.119.347-1.968 1.003-2.624.695-.656 1.544-.965 2.547-.965 1.003 0 1.89.348 2.546 1.004.656.656 1.004 1.543 1.004 2.624.077 1.08-.232 1.968-.926 2.624z"
           transform="translate(1 1) translate(33.803 4.985) translate(91.924 .113)"
           id="path210" />
        <path
           fill="#FFF"
           d="M84.812 10.302h-1.234c-.425 0-.618-.192-.618-.617v-.54h-.038c-.386.81-1.158 1.235-2.238 1.235-.772 0-1.39-.232-1.814-.695-.424-.463-.656-1.08-.694-1.813V4.167h-.81c-.116 0-.194-.038-.194-.154v-.617c0-.116.039-.155.193-.155h1.39c.424 0 .617.193.617.618V7.64c0 .54.154 1.003.386 1.312.27.309.656.463 1.196.463.695 0 1.234-.27 1.659-.772.193-.231.27-.385.27-.424V4.167h-.772c-.115 0-.193-.038-.193-.154v-.617c0-.116.04-.155.193-.155h1.775c.116 0 .193.039.193.155v5.942h.81c.116 0 .194.038.194.154v.618c-.078.115-.155.192-.27.192"
           transform="translate(1 1) translate(33.803 4.985) translate(91.924 .113)"
           id="path212" />
        <path
           stroke="#FFF"
           stroke-width=".75"
           d="M84.812 10.302h-1.234c-.425 0-.618-.192-.618-.617v-.54h-.038c-.386.81-1.158 1.235-2.238 1.235-.772 0-1.39-.232-1.814-.695-.424-.463-.656-1.08-.694-1.813V4.167h-.81c-.116 0-.194-.038-.194-.154v-.617c0-.116.039-.155.193-.155h1.39c.424 0 .617.193.617.618V7.64c0 .54.154 1.003.386 1.312.27.309.656.463 1.196.463.695 0 1.234-.27 1.659-.772.193-.231.27-.385.27-.424V4.167h-.772c-.115 0-.193-.038-.193-.154v-.617c0-.116.04-.155.193-.155h1.775c.116 0 .193.039.193.155v5.942h.81c.116 0 .194.038.194.154v.618c-.078.115-.155.192-.27.192z"
           transform="translate(1 1) translate(33.803 4.985) translate(91.924 .113)"
           id="path214" />
        <path
           fill="#FFF"
           d="M93.687 10.302h-1.35c-.425 0-.618-.192-.618-.617V5.904c0-.54-.154-1.004-.385-1.312-.27-.309-.656-.463-1.158-.463-.733 0-1.312.309-1.736.926-.04.039-.116.154-.193.309v3.935h.771c.116 0 .193.039.193.155v.617c0 .116-.077.154-.193.154h-2.74c-.115 0-.192-.038-.192-.154v-.617c0-.116.077-.155.193-.155h.772V4.206h-.772c-.116 0-.193-.039-.193-.154v-.618c0-.116.077-.154.193-.154h1.698c.115 0 .192.038.192.154l-.038.965h.038c.502-.849 1.274-1.235 2.316-1.235.771 0 1.35.232 1.813.695.463.463.656 1.041.656 1.813v3.704h.81c.116 0 .193.04.193.155v.617c-.077.077-.154.154-.27.154"
           transform="translate(1 1) translate(33.803 4.985) translate(91.924 .113)"
           id="path216" />
        <path
           stroke="#FFF"
           stroke-width=".75"
           d="M93.687 10.302h-1.35c-.425 0-.618-.192-.618-.617V5.904c0-.54-.154-1.004-.385-1.312-.27-.309-.656-.463-1.158-.463-.733 0-1.312.309-1.736.926-.04.039-.116.154-.193.309v3.935h.771c.116 0 .193.039.193.155v.617c0 .116-.077.154-.193.154h-2.74c-.115 0-.192-.038-.192-.154v-.617c0-.116.077-.155.193-.155h.772V4.206h-.772c-.116 0-.193-.039-.193-.154v-.618c0-.116.077-.154.193-.154h1.698c.115 0 .192.038.192.154l-.038.965h.038c.502-.849 1.274-1.235 2.316-1.235.771 0 1.35.232 1.813.695.463.463.656 1.041.656 1.813v3.704h.81c.116 0 .193.04.193.155v.617c-.077.077-.154.154-.27.154z"
           transform="translate(1 1) translate(33.803 4.985) translate(91.924 .113)"
           id="path218" />
        <path
           fill="#FFF"
           d="M95.77 6.714c0 .81.194 1.428.618 1.93.425.5.965.732 1.582.732.656 0 1.158-.231 1.583-.733.424-.501.617-1.119.617-1.929s-.193-1.428-.617-1.89c-.425-.464-.965-.695-1.583-.695-.617 0-1.157.231-1.582.694-.386.463-.617 1.12-.617 1.891m6.367 3.589h-1.235c-.232 0-.386-.039-.463-.155-.116-.077-.154-.231-.154-.463v-.81c-.155.386-.425.772-.85 1.042-.424.308-.925.463-1.543.463-.965 0-1.736-.348-2.353-1.004-.58-.655-.888-1.543-.888-2.623 0-1.08.309-1.968.888-2.624.578-.656 1.388-1.003 2.353-1.003.579 0 1.08.154 1.466.424.386.27.695.617.85 1.003V.965h-.811c-.116 0-.193-.039-.193-.155V.193c0-.116.077-.154.193-.154h1.775c.116 0 .193.038.193.154v9.183h.81c.116 0 .193.04.193.155v.617c-.077.077-.116.155-.231.155"
           transform="translate(1 1) translate(33.803 4.985) translate(91.924 .113)"
           id="path220" />
        <path
           stroke="#FFF"
           stroke-width=".75"
           d="M95.77 6.714c0 .81.194 1.428.618 1.93.425.5.965.732 1.582.732.656 0 1.158-.231 1.583-.733.424-.501.617-1.119.617-1.929s-.193-1.428-.617-1.89c-.425-.464-.965-.695-1.583-.695-.617 0-1.157.231-1.582.694-.386.463-.617 1.12-.617 1.891zm6.368 3.589h-1.235c-.232 0-.386-.039-.463-.155-.116-.077-.154-.231-.154-.463v-.81c-.155.386-.425.772-.85 1.042-.424.308-.925.463-1.543.463-.965 0-1.736-.348-2.353-1.004-.58-.655-.888-1.543-.888-2.623 0-1.08.309-1.968.888-2.624.578-.656 1.388-1.003 2.353-1.003.579 0 1.08.154 1.466.424.386.27.695.617.85 1.003V.965h-.811c-.116 0-.193-.039-.193-.155V.193c0-.116.077-.154.193-.154h1.775c.116 0 .193.038.193.154v9.183h.81c.116 0 .193.04.193.155v.617c-.077.077-.116.155-.231.155z"
           transform="translate(1 1) translate(33.803 4.985) translate(91.924 .113)"
           id="path222" />
        <path
           fill="#FFF"
           d="M108.466 6.984h-1.158c-.54 0-1.003.039-1.389.077-.347.039-.695.193-.926.386-.27.193-.386.463-.386.81 0 .348.116.618.425.81.308.194.617.31 1.08.31.926 0 1.698-.425 2.354-1.235V6.984zm2.006 3.318h-1.234c-.425 0-.618-.192-.618-.617v-.733h-.038c-.695.965-1.621 1.466-2.817 1.466-.695 0-1.235-.193-1.698-.54-.424-.347-.656-.849-.656-1.466 0-.772.347-1.35 1.042-1.736.694-.387 1.62-.54 2.817-.54h1.196V5.98c0-1.196-.618-1.814-1.852-1.814-.579 0-1.004.04-1.274.155-.27.115-.463.193-.54.27-.116.077-.193.115-.27.154-.154.116-.27.116-.309.039l-.385-.502c-.078-.077-.078-.154.038-.231.154-.232.502-.425 1.003-.618.502-.193 1.12-.309 1.814-.309 2.006 0 3.01.965 3.01 2.856v3.318h.81c.116 0 .193.039.193.155v.617c-.077.154-.116.231-.232.231z"
           transform="translate(1 1) translate(33.803 4.985) translate(91.924 .113)"
           id="path224" />
        <path
           stroke="#FFF"
           stroke-width=".75"
           d="M108.466 6.984h-1.158c-.54 0-1.003.039-1.389.077-.347.039-.695.193-.926.386-.27.193-.386.463-.386.81 0 .348.116.618.425.81.308.194.617.31 1.08.31.926 0 1.698-.425 2.354-1.235V6.984zm2.006 3.318h-1.234c-.425 0-.618-.192-.618-.617v-.733h-.038c-.695.965-1.621 1.466-2.817 1.466-.695 0-1.235-.193-1.698-.54-.424-.347-.656-.849-.656-1.466 0-.772.347-1.35 1.042-1.736.694-.387 1.62-.54 2.817-.54h1.196V5.98c0-1.196-.618-1.814-1.852-1.814-.579 0-1.004.04-1.274.155-.27.115-.463.193-.54.27-.116.077-.193.115-.27.154-.154.116-.27.116-.309.039l-.385-.502c-.078-.077-.078-.154.038-.231.154-.232.502-.425 1.003-.618.502-.193 1.12-.309 1.814-.309 2.006 0 3.01.965 3.01 2.856v3.318h.81c.116 0 .193.039.193.155v.617c-.077.154-.116.231-.232.231z"
           transform="translate(1 1) translate(33.803 4.985) translate(91.924 .113)"
           id="path226" />
        <path
           fill="#FFF"
           d="M116.106 9.57c.039.038.077.077.077.115 0 .039-.038.077-.077.155-.425.385-.965.54-1.582.54-.618 0-1.158-.193-1.582-.618-.425-.424-.618-1.003-.618-1.813V4.167h-.81c-.116 0-.193-.077-.193-.193v-.578c0-.116.077-.194.193-.194h.81V1.736c0-.154.078-.192.193-.192h.81c.117 0 .194.077.194.192v1.466h1.813c.116 0 .193.078.193.194v.578c0 .116-.077.193-.193.193h-1.813V7.91c0 .463.115.85.308 1.08.193.232.502.348.85.348.346 0 .617-.077.81-.27.077-.077.192-.077.27 0l.347.501z"
           transform="translate(1 1) translate(33.803 4.985) translate(91.924 .113)"
           id="path228" />
        <path
           stroke="#FFF"
           stroke-width=".75"
           d="M116.106 9.57c.039.038.077.077.077.115 0 .039-.038.077-.077.155-.425.385-.965.54-1.582.54-.618 0-1.158-.193-1.582-.618-.425-.424-.618-1.003-.618-1.813V4.167h-.81c-.116 0-.193-.077-.193-.193v-.578c0-.116.077-.194.193-.194h.81V1.736c0-.154.078-.192.193-.192h.81c.117 0 .194.077.194.192v1.466h1.813c.116 0 .193.078.193.194v.578c0 .116-.077.193-.193.193h-1.813V7.91c0 .463.115.85.308 1.08.193.232.502.348.85.348.346 0 .617-.077.81-.27.077-.077.192-.077.27 0l.347.501z"
           transform="translate(1 1) translate(33.803 4.985) translate(91.924 .113)"
           id="path230" />
        <path
           fill="#FFF"
           d="M119.077 1.08c.154.155.231.348.231.58 0 .23-.077.424-.231.54-.154.154-.347.231-.579.231-.231 0-.424-.077-.579-.232-.154-.154-.231-.347-.231-.54 0-.231.077-.424.231-.579.155-.154.348-.23.58-.23.23 0 .424.076.578.23m.81 9.223h-2.74c-.115 0-.192-.039-.192-.155v-.617c0-.116.077-.155.193-.155h.771V4.167h-.771c-.116 0-.193-.038-.193-.154v-.617c0-.116.077-.155.193-.155h1.813c.116 0 .193.039.193.155v5.942h.772c.116 0 .193.038.193.154v.618c-.039.115-.077.193-.232.193"
           transform="translate(1 1) translate(33.803 4.985) translate(91.924 .113)"
           id="path232" />
        <path
           stroke="#FFF"
           stroke-width=".75"
           d="M119.077 1.08c.154.155.231.348.231.58 0 .23-.077.424-.231.54-.154.154-.347.231-.579.231-.231 0-.424-.077-.579-.232-.154-.154-.231-.347-.231-.54 0-.231.077-.424.231-.579.155-.154.348-.23.58-.23.23 0 .424.076.578.23zm.81 9.223h-2.74c-.115 0-.192-.039-.192-.155v-.617c0-.116.077-.155.193-.155h.771V4.167h-.771c-.116 0-.193-.038-.193-.154v-.617c0-.116.077-.155.193-.155h1.813c.116 0 .193.039.193.155v5.942h.772c.116 0 .193.038.193.154v.618c-.039.115-.077.193-.232.193z"
           transform="translate(1 1) translate(33.803 4.985) translate(91.924 .113)"
           id="path234" />
        <path
           fill="#FFF"
           d="M122.202 6.753c0 .771.232 1.427.695 1.929.463.502 1.042.733 1.698.733.656 0 1.235-.231 1.698-.733.463-.502.694-1.12.694-1.93 0-.771-.231-1.427-.694-1.89-.463-.463-1.042-.733-1.66-.733-.617 0-1.196.231-1.697.733-.502.463-.734 1.08-.734 1.89m4.978 2.625c-.656.656-1.543 1.003-2.585 1.003s-1.89-.347-2.585-1.003c-.695-.656-1.004-1.544-1.004-2.663 0-1.119.348-1.968 1.042-2.624.695-.656 1.544-.965 2.585-.965 1.042 0 1.891.348 2.547 1.004.656.656 1.003 1.543 1.003 2.624 0 1.08-.347 1.968-1.003 2.624"
           transform="translate(1 1) translate(33.803 4.985) translate(91.924 .113)"
           id="path236" />
        <path
           stroke="#FFF"
           stroke-width=".75"
           d="M122.202 6.753c0 .771.232 1.427.695 1.929.463.502 1.042.733 1.698.733.656 0 1.235-.231 1.698-.733.463-.502.694-1.12.694-1.93 0-.771-.231-1.427-.694-1.89-.463-.463-1.042-.733-1.66-.733-.617 0-1.196.231-1.697.733-.502.463-.734 1.08-.734 1.89zm4.978 2.624c-.656.656-1.543 1.003-2.585 1.003s-1.89-.347-2.585-1.003c-.695-.656-1.004-1.544-1.004-2.663 0-1.119.348-1.968 1.042-2.624.695-.656 1.544-.965 2.585-.965 1.042 0 1.891.348 2.547 1.004.656.656 1.003 1.543 1.003 2.624 0 1.08-.347 1.968-1.003 2.624z"
           transform="translate(1 1) translate(33.803 4.985) translate(91.924 .113)"
           id="path238" />
        <path
           fill="#FFF"
           d="M136.865 10.302h-1.35c-.424 0-.618-.192-.618-.617V5.904c0-.54-.115-1.004-.385-1.312-.27-.309-.656-.463-1.158-.463-.733 0-1.312.309-1.737.926-.038.039-.115.154-.192.309v3.935h.771c.116 0 .193.039.193.155v.617c0 .116-.077.154-.193.154h-2.74c-.115 0-.192-.038-.192-.154v-.617c0-.116.077-.155.193-.155h.771V4.206h-.771c-.116 0-.193-.039-.193-.154v-.618c0-.116.077-.154.193-.154h1.698c.115 0 .193.038.193.154l-.04.965h.04c.501-.849 1.273-1.235 2.315-1.235.771 0 1.35.232 1.813.695.463.463.656 1.041.656 1.813v3.704h.81c.116 0 .193.04.193.155v.617c-.077.077-.115.154-.27.154"
           transform="translate(1 1) translate(33.803 4.985) translate(91.924 .113)"
           id="path240" />
        <path
           stroke="#FFF"
           stroke-width=".75"
           d="M136.865 10.302h-1.35c-.424 0-.618-.192-.618-.617V5.904c0-.54-.115-1.004-.385-1.312-.27-.309-.656-.463-1.158-.463-.733 0-1.312.309-1.737.926-.038.039-.115.154-.192.309v3.935h.771c.116 0 .193.039.193.155v.617c0 .116-.077.154-.193.154h-2.74c-.115 0-.192-.038-.192-.154v-.617c0-.116.077-.155.193-.155h.771V4.206h-.771c-.116 0-.193-.039-.193-.154v-.618c0-.116.077-.154.193-.154h1.698c.115 0 .193.038.193.154l-.04.965h.04c.501-.849 1.273-1.235 2.315-1.235.771 0 1.35.232 1.813.695.463.463.656 1.041.656 1.813v3.704h.81c.116 0 .193.04.193.155v.617c-.077.077-.115.154-.27.154z"
           transform="translate(1 1) translate(33.803 4.985) translate(91.924 .113)"
           id="path242" />
      </g>
    </g>
    <g
       fill="#FFF"
       fill-rule="nonzero"
       id="g250">
      <path
         d="M22.85 21.43c0 .713-.58 1.294-1.293 1.294h-8.308c-.713 0-1.293-.58-1.293-1.293v-8.308c0-.713.58-1.293 1.293-1.293h8.308c.712 0 1.293.58 1.293 1.293v8.308zm-1.327-8.273h-8.24v8.24h8.24v-8.24zM22.85 8.937c0 .713-.58 1.293-1.293 1.293h-8.308c-.713 0-1.293-.58-1.293-1.293V.63c0-.712.58-1.292 1.293-1.292h8.308c.712 0 1.293.58 1.293 1.292v8.308zM21.523.663h-8.24v8.24h8.24V.663zM10.23 21.43c0 .713-.58 1.294-1.293 1.294H.63c-.712 0-1.292-.58-1.292-1.293v-8.308c0-.713.58-1.293 1.292-1.293h8.308c.713 0 1.293.58 1.293 1.293v8.308zm-1.327-8.273H.663v8.24h8.24v-8.24zM10.23 8.937c0 .713-.58 1.293-1.293 1.293H.63c-.712 0-1.292-.58-1.292-1.293V.63c0-.712.58-1.292 1.292-1.292h8.308c.713 0 1.293.58 1.293 1.292v8.308zm-1.327-.034V.663H.663v8.24h8.24z"
         transform="translate(1 1)"
         id="path248" />
    </g>
  </g>
  <g
     id="surface1"
     transform="matrix(0.08366733,0,0,0.08366733,-5.7251968,-4.6351472)">
    <path
       style="fill:#97191e;fill-opacity:1;fill-rule:nonzero;stroke:none"
       d="m 346.58203,201.1875 c 0,-75.25 -61.00781,-136.25 -136.25391,-136.25 -75.25,0 -136.253901,61 -136.253901,136.25 0,75.25 61.003901,136.25391 136.253901,136.25391 75.2461,0 136.25391,-61.00391 136.25391,-136.25391"
       id="path317" />
    <path
       style="fill:#ffffff;fill-opacity:1;fill-rule:nonzero;stroke:none"
       d="m 263.25,108.94141 c 0,0 50.52344,36.08984 52.32812,81.19531 1.8086,45.11328 -34.28515,52.33203 -52.32812,49.92578 0,0 23.45703,5.02734 41.50391,0.41016 0,0 -15.03516,20.03906 -73.98438,15.23046 -58.94141,-4.80859 -42.10156,29.46485 -18.04297,30.07032 0,0 3.61328,8.42187 -16.83984,3.60937 -20.44922,-4.8125 -24.66016,-22.85547 -26.46485,-14.43359 -1.80468,8.41797 13.23438,28.26562 66.16407,27.0625 0,0 0,7.8164 -40.90235,5.41797 -40.89843,-2.40625 -66.76171,-26.46485 -68.57031,-76.99219 -1.80078,-50.51953 43.91016,-79.39453 69.77344,-72.77734 25.86719,6.62109 14.4375,-12.62891 2.40625,-22.25391 0,0 22.25,-4.20703 34.28515,4.20703 12.02735,8.42578 33.07422,5.41797 33.07422,5.41797 0,0 -40.89453,13.22656 -32.47656,34.28125 8.42578,21.05078 39.09766,15.03906 46.31641,1.20312 7.21484,-13.83203 12.6289,-30.07031 -16.24219,-71.57421"
       id="path319" />
    <path
       style="fill:#ffffff;fill-opacity:1;fill-rule:nonzero;stroke:none"
       d="m 206.71094,95.710938 c 0,0 -49.32032,12.027342 -39.09375,43.906252 3.60937,11.42968 2.82812,11.29687 2.82812,11.29687 0,0 -39.62109,11.55469 -44.3789,48.2461 0,0 -4.76172,-2.40625 -8.3711,-14.4336 -3.60547,-12.02734 -7.92187,-31.27344 8.3711,-53.52734 16.28906,-22.25781 65.01171,-38.496095 80.64453,-35.488282"
       id="path321" />
    <g
       clip-path="url(#clip1)"
       clip-rule="nonzero"
       id="g325">
      <g
         id="use323"
         clip-path="url(#clip2)">
        <path
           style="fill:#ffffff;fill-opacity:1;fill-rule:nonzero;stroke:none"
           d="m 233.70312,302.03516 c -51.38281,0.6875 -66.0625,-18.76563 -64.28125,-27.08594 0.23047,-1.08203 1.41016,-1.8125 1.75391,-2.10547 -6.37109,-7.07422 -16.89453,-1.39844 -10.65234,7.21484 24.26953,27.5586 58.89843,24.64844 73.17968,21.97657"
           id="path667" />
      </g>
    </g>
  </g>
  <g
     id="g56"
     transform="matrix(0.27906022,0,0,-0.27905866,28.598304,13.970974)">
    <path
       d="m 0,0 c 0,-1.142 0.088,-2.194 0.352,-3.158 1.403,-5.354 6.054,-9.039 11.581,-9.039 8.16,0 12.899,6.669 12.899,16.408 0,8.424 -4.476,15.706 -12.635,15.706 -5.265,0 -10.266,-3.686 -11.67,-9.478 C 0.263,9.476 0,8.336 0,7.37 Z m -7.634,11.319 c 0,5.439 -0.175,9.827 -0.351,13.865 h 6.844 l 0.44,-7.285 h 0.174 c 3.072,5.176 8.161,8.162 15.093,8.162 10.353,0 18.075,-8.688 18.075,-21.499 0,-15.267 -9.389,-22.814 -19.391,-22.814 -5.616,0 -10.529,2.457 -13.075,6.669 H 0 V -34.66 h -7.634 z"
       style="fill:#971a1f;fill-opacity:1;fill-rule:nonzero;stroke:none"
       id="path58" />
  </g>
  <g
     id="g60"
     transform="matrix(0.27906022,0,0,-0.27905866,40.39858,1.4097523)">
    <path
       d="m 0,0 h 7.722 v -26.586 h 0.175 c 1.228,2.192 3.159,4.211 5.528,5.526 2.281,1.317 5.002,2.108 7.896,2.108 5.704,0 14.83,-3.511 14.83,-18.077 V -62.298 H 28.43 v 24.392 c 0,6.845 -2.545,12.547 -9.828,12.547 -5.001,0 -8.863,-3.509 -10.354,-7.634 -0.439,-1.141 -0.526,-2.28 -0.526,-3.684 V -62.298 H 0 Z"
       style="fill:#971a1f;fill-opacity:1;fill-rule:nonzero;stroke:none"
       id="path62" />
  </g>
  <g
     id="g64"
     transform="matrix(0.27906022,0,0,-0.27905866,55.333462,12.893979)">
    <path
       d="m 0,0 c 0,-9.3 5.265,-16.32 12.811,-16.32 7.371,0 12.898,6.932 12.898,16.497 0,7.194 -3.598,16.232 -12.723,16.232 C 3.948,16.409 0,7.985 0,0 m 33.606,0.44 c 0,-15.708 -10.968,-22.551 -21.147,-22.551 -11.406,0 -20.355,8.423 -20.355,21.849 0,14.126 9.387,22.463 21.058,22.463 12.196,0 20.444,-8.864 20.444,-21.761"
       style="fill:#971a1f;fill-opacity:1;fill-rule:nonzero;stroke:none"
       id="path66" />
  </g>
  <g
     id="g68"
     transform="matrix(0.27906022,0,0,-0.27905866,74.945087,11.718344)">
    <path
       d="M 0,0 C 0.088,4.825 -2.018,12.46 -10.705,12.46 -18.603,12.46 -21.936,5.353 -22.551,0 Z m -22.639,-5.528 c 0.176,-10.442 6.757,-14.742 14.567,-14.742 5.526,0 8.949,0.966 11.758,2.194 l 1.402,-5.528 c -2.719,-1.228 -7.457,-2.72 -14.214,-2.72 -13.073,0 -20.883,8.685 -20.883,21.497 0,12.81 7.546,22.815 19.919,22.815 C 3.86,17.988 7.457,5.88 7.457,-1.931 7.457,-3.51 7.37,-4.65 7.195,-5.528 Z"
       style="fill:#971a1f;fill-opacity:1;fill-rule:nonzero;stroke:none"
       id="path70" />
  </g>
  <g
     id="g72"
     transform="matrix(0.27906022,0,0,-0.27905866,79.693461,10.151085)">
    <path
       d="m 0,0 c 0,4.475 -0.087,7.982 -0.351,11.495 h 6.844 l 0.44,-7.02 h 0.176 c 2.106,3.947 7.018,7.897 14.038,7.897 5.878,0 15.004,-3.511 15.004,-18.077 v -25.269 h -7.72 v 24.481 c 0,6.843 -2.545,12.547 -9.829,12.547 -5,0 -8.95,-3.598 -10.352,-7.898 C 7.898,-2.81 7.722,-4.126 7.722,-5.441 V -30.974 H 0 Z"
       style="fill:#971a1f;fill-opacity:1;fill-rule:nonzero;stroke:none"
       id="path74" />
  </g>
  <path
     d="m 93.281418,6.9433406 h 2.154986 V 18.794689 h -2.154986 z m 2.399795,-3.3297441 c 0,0.7347769 -0.51399,1.3218895 -1.371481,1.3218895 -0.783069,0 -1.297167,-0.5871126 -1.297167,-1.3218895 0,-0.7347622 0.538357,-1.3464758 1.346689,-1.3464758 0.783628,0 1.321959,0.5874436 1.321959,1.3464758"
     style="fill:#971a1f;fill-opacity:1;fill-rule:nonzero;stroke:none;stroke-width:0.27905"
     id="path76" />
  <g
     id="g78"
     transform="matrix(0.27906022,0,0,-0.27905866,100.01452,6.9432703)">
    <path
       d="m 0,0 6.055,-9.128 c 1.666,-2.367 2.981,-4.475 4.386,-6.842 h 0.175 c 1.405,2.456 2.808,4.649 4.301,6.931 L 20.796,0 h 8.423 L 14.741,-20.534 29.569,-42.469 h -8.686 l -6.319,9.563 c -1.666,2.457 -3.069,4.828 -4.561,7.37 H 9.826 C 8.424,-28.078 7.02,-30.36 5.352,-32.906 L -0.79,-42.469 H -9.301 L 5.79,-20.798 -8.599,0 Z"
       style="fill:#971a1f;fill-opacity:1;fill-rule:nonzero;stroke:none"
       id="path80" />
  </g>
  <g
     id="g82"
     transform="matrix(0.27906022,0,0,-0.27905866,112.67414,12.614391)">
    <path
       d="m 0,0 c 0,-9.175 5.28,-16.1 12.725,-16.1 7.269,0 12.723,6.837 12.723,16.274 0,7.097 -3.549,16.098 -12.551,16.098 C 3.896,16.272 0,7.963 0,0 m 33.237,0.434 c 0,-15.496 -10.732,-22.246 -20.859,-22.246 -11.339,0 -20.082,8.309 -20.082,21.552 0,14.023 9.176,22.246 20.775,22.246 12.032,0 20.166,-8.743 20.166,-21.552"
       style="fill:#110f0e;fill-opacity:1;fill-rule:nonzero;stroke:none"
       id="path84" />
  </g>
  <g
     id="g86"
     transform="matrix(0.27906022,0,0,-0.27905866,112.67414,12.614391)"
     style="fill:#ffffff">
    <path
       d="m 0,0 c 0,-9.175 5.28,-16.1 12.725,-16.1 7.269,0 12.723,6.837 12.723,16.274 0,7.097 -3.549,16.098 -12.551,16.098 C 3.896,16.272 0,7.963 0,0 Z m 33.237,0.434 c 0,-15.496 -10.732,-22.246 -20.859,-22.246 -11.339,0 -20.082,8.309 -20.082,21.552 0,14.023 9.176,22.246 20.775,22.246 12.032,0 20.166,-8.743 20.166,-21.552 z"
       style="fill:#ffffff;stroke:#231f20;stroke-width:2;stroke-linecap:butt;stroke-linejoin:miter;stroke-miterlimit:10;stroke-dasharray:none;stroke-opacity:1"
       id="path88" />
  </g>
  <g
     id="g90"
     transform="matrix(0.27906022,0,0,-0.27905866,124.63179,10.392297)">
    <path
       d="m 0,0 c 0,4.934 -0.087,9.176 -0.347,13.071 h 6.664 l 0.26,-8.223 h 0.347 c 1.904,5.625 6.492,9.175 11.598,9.175 0.868,0 1.473,-0.086 2.165,-0.26 V 6.579 C 19.908,6.752 19.129,6.838 18.09,6.838 12.724,6.838 8.916,2.77 7.876,-2.942 7.704,-3.981 7.529,-5.193 7.529,-6.491 V -28.823 H 0 Z"
       style="fill:#110f0e;fill-opacity:1;fill-rule:nonzero;stroke:none"
       id="path92" />
  </g>
  <g
     id="g94"
     transform="matrix(0.27906022,0,0,-0.27905866,124.63179,10.392297)"
     style="fill:#ffffff">
    <path
       d="m 0,0 c 0,4.934 -0.087,9.176 -0.347,13.071 h 6.664 l 0.26,-8.223 h 0.347 c 1.904,5.625 6.492,9.175 11.598,9.175 0.868,0 1.473,-0.086 2.165,-0.26 V 6.579 C 19.908,6.752 19.129,6.838 18.09,6.838 12.724,6.838 8.916,2.77 7.876,-2.942 7.704,-3.981 7.529,-5.193 7.529,-6.491 V -28.823 H 0 Z"
       style="fill:#ffffff;stroke:#231f20;stroke-width:2;stroke-linecap:butt;stroke-linejoin:miter;stroke-miterlimit:10;stroke-dasharray:none;stroke-opacity:1"
       id="path96" />
  </g>
  <g
     id="g98"
     transform="matrix(0.27906022,0,0,-0.27905866,135.67008,3.3871849)">
    <path
       d="M 0,0 V -12.031 H 10.906 V -17.83 H 0 v -22.593 c 0,-5.193 1.471,-8.137 5.712,-8.137 1.992,0 3.463,0.261 4.415,0.521 l 0.347,-5.713 c -1.471,-0.606 -3.81,-1.039 -6.751,-1.039 -3.551,0 -6.407,1.125 -8.224,3.203 -2.164,2.25 -2.943,5.972 -2.943,10.905 v 22.853 h -6.493 v 5.799 h 6.493 v 10.039 z"
       style="fill:#110f0e;fill-opacity:1;fill-rule:nonzero;stroke:none"
       id="path100" />
  </g>
  <g
     id="g102"
     transform="matrix(0.27906022,0,0,-0.27905866,135.67008,3.3871849)"
     style="fill:#ffffff">
    <path
       d="M 0,0 V -12.031 H 10.906 V -17.83 H 0 v -22.593 c 0,-5.193 1.471,-8.137 5.712,-8.137 1.992,0 3.463,0.261 4.415,0.521 l 0.347,-5.713 c -1.471,-0.606 -3.81,-1.039 -6.751,-1.039 -3.551,0 -6.407,1.125 -8.224,3.203 -2.164,2.25 -2.943,5.972 -2.943,10.905 v 22.853 h -6.493 v 5.799 h 6.493 v 10.039 z"
       style="fill:#ffffff;stroke:#231f20;stroke-width:2;stroke-linecap:butt;stroke-linejoin:miter;stroke-miterlimit:10;stroke-dasharray:none;stroke-opacity:1"
       id="path104" />
  </g>
  <g
     id="g106"
     transform="matrix(0.27906022,0,0,-0.27905866,141.10529,1.2860586)">
    <path
       d="m 0,0 h 7.616 v -26.141 h 0.175 c 1.212,2.164 3.115,4.07 5.452,5.369 2.25,1.297 4.934,2.164 7.79,2.164 5.625,0 14.628,-3.463 14.628,-17.918 v -24.929 h -7.616 v 24.063 c 0,6.752 -2.511,12.463 -9.696,12.463 -4.933,0 -8.828,-3.462 -10.213,-7.616 -0.433,-1.038 -0.52,-2.164 -0.52,-3.635 V -61.455 H 0 Z"
       style="fill:#110f0e;fill-opacity:1;fill-rule:nonzero;stroke:none"
       id="path108" />
  </g>
  <g
     id="g110"
     transform="matrix(0.27906022,0,0,-0.27905866,141.10529,1.2860586)"
     style="fill:#ffffff">
    <path
       d="m 0,0 h 7.616 v -26.141 h 0.175 c 1.212,2.164 3.115,4.07 5.452,5.369 2.25,1.297 4.934,2.164 7.79,2.164 5.625,0 14.628,-3.463 14.628,-17.918 v -24.929 h -7.616 v 24.063 c 0,6.752 -2.511,12.463 -9.696,12.463 -4.933,0 -8.828,-3.462 -10.213,-7.616 -0.433,-1.038 -0.52,-2.164 -0.52,-3.635 V -61.455 H 0 Z"
       style="fill:#ffffff;stroke:#231f20;stroke-width:2;stroke-linecap:butt;stroke-linejoin:miter;stroke-miterlimit:10;stroke-dasharray:none;stroke-opacity:1"
       id="path112" />
  </g>
  <g
     id="g114"
     transform="matrix(0.27906022,0,0,-0.27905866,155.81551,12.614391)">
    <path
       d="m 0,0 c 0,-9.175 5.28,-16.1 12.726,-16.1 7.269,0 12.722,6.837 12.722,16.274 0,7.097 -3.549,16.098 -12.551,16.098 C 3.896,16.272 0,7.963 0,0 m 33.238,0.434 c 0,-15.496 -10.732,-22.246 -20.859,-22.246 -11.339,0 -20.082,8.309 -20.082,21.552 0,14.023 9.174,22.246 20.773,22.246 12.033,0 20.168,-8.743 20.168,-21.552"
       style="fill:#110f0e;fill-opacity:1;fill-rule:nonzero;stroke:none"
       id="path116" />
  </g>
  <g
     id="g118"
     transform="matrix(0.27906022,0,0,-0.27905866,155.81551,12.614391)"
     style="fill:#ffffff">
    <path
       d="m 0,0 c 0,-9.175 5.28,-16.1 12.726,-16.1 7.269,0 12.722,6.837 12.722,16.274 0,7.097 -3.549,16.098 -12.551,16.098 C 3.896,16.272 0,7.963 0,0 Z m 33.238,0.434 c 0,-15.496 -10.732,-22.246 -20.859,-22.246 -11.339,0 -20.082,8.309 -20.082,21.552 0,14.023 9.174,22.246 20.773,22.246 12.033,0 20.168,-8.743 20.168,-21.552 z"
       style="fill:#ffffff;stroke:#231f20;stroke-width:2;stroke-linecap:butt;stroke-linejoin:miter;stroke-miterlimit:10;stroke-dasharray:none;stroke-opacity:1"
       id="path120" />
  </g>
</svg>
