<svg xmlns="http://www.w3.org/2000/svg" xmlns:xlink="http://www.w3.org/1999/xlink" width="400px" height="400px" viewBox="0 0 400 400" version="1.1">
<defs>
<clipPath id="clip1">
  <path d="M 158.613281 269.644531 L 233.703125 269.644531 L 233.703125 303.675781 L 158.613281 303.675781 Z M 158.613281 269.644531 "/>
</clipPath>
<filter id="alpha" filterUnits="objectBoundingBox" x="0%" y="0%" width="100%" height="100%">
  <feColorMatrix type="matrix" in="SourceGraphic" values="0 0 0 0 1 0 0 0 0 1 0 0 0 0 1 0 0 0 1 0"/>
</filter>
<mask id="mask0">
  <g filter="url(#alpha)">
<rect x="0" y="0" width="400" height="400" style="fill:rgb(0%,0%,0%);fill-opacity:0.231373;stroke:none;"/>
  </g>
</mask>
<clipPath id="clip2">
  <rect x="0" y="0" width="400" height="400"/>
</clipPath>
<g id="surface5" clip-path="url(#clip2)">
<path style=" stroke:none;fill-rule:nonzero;fill:rgb(100%,100%,100%);fill-opacity:1;" d="M 233.703125 302.035156 C 182.320312 302.722656 167.640625 283.269531 169.421875 274.949219 C 169.652344 273.867188 170.832031 273.136719 171.175781 272.84375 C 164.804688 265.769531 154.28125 271.445312 160.523438 280.058594 C 184.792969 307.617188 219.421875 304.707031 233.703125 302.035156 "/>
</g>
</defs>
<g id="surface1">
<path style=" stroke:none;fill-rule:nonzero;fill:rgb(59.215686%,10.196078%,12.156863%);fill-opacity:1;" d="M 346.582031 201.1875 C 346.582031 125.9375 285.574219 64.9375 210.328125 64.9375 C 135.078125 64.9375 74.074219 125.9375 74.074219 201.1875 C 74.074219 276.4375 135.078125 337.441406 210.328125 337.441406 C 285.574219 337.441406 346.582031 276.4375 346.582031 201.1875 "/>
<path style=" stroke:none;fill-rule:nonzero;fill:rgb(100%,100%,100%);fill-opacity:1;" d="M 263.25 108.941406 C 263.25 108.941406 313.773438 145.03125 315.578125 190.136719 C 317.386719 235.25 281.292969 242.46875 263.25 240.0625 C 263.25 240.0625 286.707031 245.089844 304.753906 240.472656 C 304.753906 240.472656 289.71875 260.511719 230.769531 255.703125 C 171.828125 250.894531 188.667969 285.167969 212.726562 285.773438 C 212.726562 285.773438 216.339844 294.195312 195.886719 289.382812 C 175.4375 284.570312 171.226562 266.527344 169.421875 274.949219 C 167.617188 283.367188 182.65625 303.214844 235.585938 302.011719 C 235.585938 302.011719 235.585938 309.828125 194.683594 307.429688 C 153.785156 305.023438 127.921875 280.964844 126.113281 230.4375 C 124.3125 179.917969 170.023438 151.042969 195.886719 157.660156 C 221.753906 164.28125 210.324219 145.03125 198.292969 135.40625 C 198.292969 135.40625 220.542969 131.199219 232.578125 139.613281 C 244.605469 148.039062 265.652344 145.03125 265.652344 145.03125 C 265.652344 145.03125 224.757812 158.257812 233.175781 179.3125 C 241.601562 200.363281 272.273438 194.351562 279.492188 180.515625 C 286.707031 166.683594 292.121094 150.445312 263.25 108.941406 "/>
<path style=" stroke:none;fill-rule:nonzero;fill:rgb(100%,100%,100%);fill-opacity:1;" d="M 206.710938 95.710938 C 206.710938 95.710938 157.390625 107.738281 167.617188 139.617188 C 171.226562 151.046875 170.445312 150.914062 170.445312 150.914062 C 170.445312 150.914062 130.824219 162.46875 126.066406 199.160156 C 126.066406 199.160156 121.304688 196.753906 117.695312 184.726562 C 114.089844 172.699219 109.773438 153.453125 126.066406 131.199219 C 142.355469 108.941406 191.078125 92.703125 206.710938 95.710938 "/>
<g clip-path="url(#clip1)" clip-rule="nonzero">
<use xlink:href="#surface5" mask="url(#mask0)"/>
</g>
</g>
</svg>
